<?xml version="1.0" encoding="UTF-8"?> <svg xmlns="http://www.w3.org/2000/svg" width="842" height="596" viewBox="0 0 842 596" fill="none"> <path d="M356.971 298.001C356.971 301.401 354.211 304.162 350.811 304.162C347.411 304.162 344.65 301.401 344.65 298.001C344.65 294.601 347.411 291.841 350.811 291.841C354.211 291.841 356.971 294.601 356.971 298.001Z" fill="#D13F66"></path> <path d="M472.062 195.54C471.605 193.145 469.356 191.573 466.998 192.049C465.975 192.25 465.152 192.835 464.549 193.602C466.432 195.741 468.241 197.935 469.996 200.165C471.532 199.214 472.428 197.423 472.062 195.54Z" fill="#3D6FB6"></path> <path d="M481.386 200.111C479.028 200.586 477.493 202.89 477.95 205.284C478.407 207.697 480.673 209.251 483.031 208.794C485.371 208.337 486.907 206.016 486.45 203.603C485.993 201.208 483.726 199.636 481.386 200.111Z" fill="#3D6FB6"></path> <path d="M490.418 224.642C489.961 222.247 487.694 220.675 485.355 221.132C484.952 221.205 484.605 221.406 484.258 221.589C485.665 224.111 487 226.671 488.261 229.285C489.833 228.371 490.784 226.561 490.418 224.642Z" fill="#3D6FB6"></path> <path d="M500.364 368.945C502.722 368.488 504.239 366.166 503.782 363.771C503.325 361.377 501.076 359.805 498.718 360.262C496.36 360.719 494.843 363.04 495.3 365.453C495.757 367.848 498.024 369.402 500.364 368.945Z" fill="#3D6FB6"></path> <path d="M491.369 381.631C493.727 381.174 495.262 378.853 494.805 376.44C494.348 374.045 492.082 372.473 489.723 372.948C487.384 373.405 485.848 375.727 486.305 378.121C486.762 380.516 489.029 382.088 491.369 381.631Z" fill="#3D6FB6"></path> <path d="M475.902 391.064C476.359 393.477 478.607 395.031 480.965 394.574C483.324 394.117 484.841 391.795 484.402 389.4C483.945 387.006 481.697 385.434 479.338 385.891C478.351 386.092 477.565 386.64 476.962 387.353C476.798 387.609 476.596 387.865 476.414 388.121C475.938 388.998 475.701 390.022 475.902 391.064Z" fill="#3D6FB6"></path> <path d="M475.41 402.067C474.953 399.673 472.686 398.101 470.328 398.576C467.988 399.033 466.452 401.355 466.891 403.749C467.348 406.144 469.615 407.716 471.955 407.259C474.331 406.802 475.867 404.48 475.41 402.067Z" fill="#3D6FB6"></path> <path d="M465.008 415.029C464.551 412.635 462.303 411.062 459.945 411.519C457.587 411.976 456.07 414.298 456.527 416.693C456.984 419.087 459.232 420.66 461.59 420.184C463.93 419.746 465.447 417.424 465.008 415.029Z" fill="#3D6FB6"></path> <path d="M429.216 437.494C431.574 437.037 433.11 434.716 432.653 432.303C432.598 431.974 432.415 431.7 432.305 431.407C429.929 432.961 427.534 434.442 425.066 435.868C426.035 437.111 427.589 437.805 429.216 437.494Z" fill="#3D6FB6"></path> <path d="M459.121 187.186C458.737 185.138 457.018 183.786 455.062 183.694C456.434 185.011 457.786 186.327 459.102 187.698C459.102 187.515 459.157 187.35 459.121 187.186Z" fill="#3D6FB6"></path> <path d="M507.326 254.019C506.869 251.624 504.621 250.052 502.263 250.527C499.923 250.984 498.387 253.306 498.844 255.7C499.301 258.095 501.568 259.667 503.908 259.21C506.266 258.735 507.783 256.413 507.326 254.019Z" fill="#3D6FB6"></path> <path d="M447.752 150.316C449.616 149.95 450.914 148.414 451.17 146.623C448.72 147.354 446.307 148.159 443.895 149.018C444.882 150.023 446.271 150.608 447.752 150.316Z" fill="#3D6FB6"></path> <path d="M471.131 145.709C473.124 145.325 474.458 143.552 474.55 141.541C471.808 141.925 469.066 142.364 466.342 142.894C467.055 144.868 469.029 146.111 471.131 145.709Z" fill="#3D6FB6"></path> <path d="M435.705 154.574C433.347 155.031 431.829 157.353 432.286 159.747C432.743 162.16 434.992 163.714 437.35 163.257C439.708 162.8 441.225 160.479 440.768 158.084C440.329 155.689 438.063 154.117 435.705 154.574Z" fill="#3D6FB6"></path> <path d="M464.13 153.478C463.673 151.083 461.425 149.511 459.067 149.986C456.709 150.443 455.191 152.765 455.63 155.159C456.087 157.572 458.336 159.126 460.694 158.669C463.052 158.212 464.587 155.872 464.13 153.478Z" fill="#3D6FB6"></path> <path d="M484.076 154.044C486.434 153.587 487.951 151.266 487.494 148.871C487.037 146.477 484.789 144.904 482.431 145.38C480.091 145.837 478.555 148.158 479.012 150.553C479.469 152.948 481.736 154.52 484.076 154.044Z" fill="#3D6FB6"></path> <path d="M507.435 149.456C509.793 148.999 511.329 146.678 510.872 144.265C510.415 141.87 508.148 140.298 505.79 140.773C503.45 141.23 501.915 143.552 502.372 145.947C502.829 148.341 505.095 149.913 507.435 149.456Z" fill="#3D6FB6"></path> <path d="M530.797 144.848C531.053 144.793 531.254 144.647 531.492 144.556C529.975 144.172 528.439 143.843 526.922 143.514C527.909 144.556 529.317 145.141 530.797 144.848Z" fill="#3D6FB6"></path> <path d="M478.518 161.556C478.061 159.143 475.794 157.589 473.455 158.046C471.097 158.503 469.561 160.825 470.018 163.238C470.475 165.633 472.742 167.205 475.1 166.73C477.44 166.273 478.975 163.951 478.518 161.556Z" fill="#3D6FB6"></path> <path d="M498.459 162.124C500.798 161.667 502.334 159.345 501.877 156.951C501.42 154.538 499.153 152.984 496.813 153.441C494.473 153.898 492.92 156.22 493.377 158.633C493.834 161.027 496.119 162.581 498.459 162.124Z" fill="#3D6FB6"></path> <path d="M521.822 157.518C524.162 157.061 525.697 154.739 525.24 152.344C524.783 149.931 522.516 148.378 520.177 148.835C517.837 149.292 516.283 151.613 516.74 154.026C517.197 156.421 519.482 157.993 521.822 157.518Z" fill="#3D6FB6"></path> <path d="M540.103 149.42C540.56 151.815 542.845 153.387 545.185 152.912C546.812 152.583 548 151.358 548.457 149.823C545.788 148.817 543.082 147.885 540.377 147.044C540.103 147.793 539.938 148.579 540.103 149.42Z" fill="#3D6FB6"></path> <path d="M534.765 165.871C537.123 165.414 538.659 163.093 538.202 160.698C537.745 158.285 535.478 156.731 533.12 157.188C530.78 157.645 529.245 159.967 529.702 162.38C530.159 164.774 532.425 166.346 534.765 165.871Z" fill="#3D6FB6"></path> <path d="M553.062 157.773C553.519 160.168 555.786 161.74 558.125 161.283C560.484 160.826 562.019 158.504 561.562 156.11C561.507 155.835 561.361 155.616 561.251 155.36C559.46 154.501 557.668 153.66 555.859 152.874C553.903 153.587 552.66 155.598 553.062 157.773Z" fill="#3D6FB6"></path> <path d="M459.981 448.737C459.524 446.343 457.257 444.771 454.899 445.246C452.559 445.703 451.024 448.024 451.481 450.419C451.481 450.456 451.517 450.492 451.517 450.529C453.949 451.26 456.398 451.918 458.848 452.521C459.762 451.516 460.255 450.163 459.981 448.737Z" fill="#3D6FB6"></path> <path d="M478.259 440.64C475.919 441.097 474.383 443.419 474.84 445.814C475.297 448.208 477.564 449.78 479.904 449.323C482.262 448.866 483.797 446.545 483.34 444.132C482.883 441.737 480.617 440.183 478.259 440.64Z" fill="#3D6FB6"></path> <path d="M514.601 444.369C512.243 444.826 510.726 447.148 511.183 449.542C511.64 451.937 513.888 453.509 516.246 453.052C518.604 452.595 520.122 450.274 519.665 447.879C519.208 445.484 516.941 443.912 514.601 444.369Z" fill="#3D6FB6"></path> <path d="M537.962 439.78C535.622 440.237 534.086 442.559 534.543 444.972C535 447.366 537.267 448.938 539.607 448.463C541.965 448.006 543.482 445.685 543.025 443.29C542.568 440.877 540.302 439.305 537.962 439.78Z" fill="#3D6FB6"></path> <path d="M506.284 308.748C506.009 307.322 505.077 306.262 503.889 305.677C503.761 308.382 503.578 311.069 503.322 313.72C505.37 313.062 506.686 310.978 506.284 308.748Z" fill="#3D6FB6"></path> <path d="M450.071 162.654C447.731 163.111 446.196 165.433 446.653 167.846C447.11 170.24 449.377 171.812 451.716 171.337C454.075 170.88 455.61 168.559 455.153 166.164C454.696 163.751 452.429 162.179 450.071 162.654Z" fill="#3D6FB6"></path> <path d="M463.033 171.009C460.675 171.466 459.157 173.788 459.614 176.201C460.071 178.596 462.32 180.168 464.678 179.692C467.036 179.235 468.553 176.914 468.096 174.519C467.658 172.106 465.391 170.552 463.033 171.009Z" fill="#3D6FB6"></path> <path d="M482.978 171.592C483.435 173.986 485.702 175.559 488.042 175.102C490.4 174.645 491.917 172.323 491.479 169.928C491.022 167.515 488.773 165.962 486.415 166.419C484.075 166.857 482.521 169.179 482.978 171.592Z" fill="#3D6FB6"></path> <path d="M506.338 166.987C506.795 169.382 509.061 170.954 511.401 170.497C513.759 170.04 515.295 167.719 514.838 165.324C514.381 162.911 512.114 161.357 509.756 161.814C507.434 162.253 505.881 164.574 506.338 166.987Z" fill="#3D6FB6"></path> <path d="M482.483 182.58C482.026 180.185 479.759 178.613 477.419 179.07C475.061 179.546 473.526 181.849 473.983 184.262C474.44 186.656 476.707 188.229 479.065 187.772C481.405 187.296 482.94 184.975 482.483 182.58Z" fill="#3D6FB6"></path> <path d="M505.846 177.973C505.389 175.578 503.122 174.006 500.782 174.463C498.442 174.92 496.888 177.241 497.345 179.636C497.802 182.031 500.087 183.603 502.427 183.146C504.767 182.689 506.303 180.367 505.846 177.973Z" fill="#3D6FB6"></path> <path d="M520.707 175.049C521.164 177.444 523.449 179.016 525.789 178.559C528.128 178.102 529.664 175.78 529.207 173.367C528.75 170.972 526.483 169.4 524.143 169.857C521.804 170.333 520.25 172.654 520.707 175.049Z" fill="#3D6FB6"></path> <path d="M549.15 173.951C551.49 173.494 553.025 171.173 552.568 168.778C552.111 166.384 549.845 164.811 547.505 165.268C545.165 165.725 543.611 168.047 544.068 170.46C544.525 172.855 546.81 174.408 549.15 173.951Z" fill="#3D6FB6"></path> <path d="M567.427 165.835C567.884 168.229 570.17 169.801 572.509 169.344C574.849 168.887 576.385 166.566 575.928 164.171C575.873 163.824 575.69 163.55 575.562 163.257C574.155 162.38 572.747 161.502 571.303 160.661C571.157 160.68 571.01 160.625 570.864 160.661C568.524 161.118 566.97 163.44 567.427 165.835Z" fill="#3D6FB6"></path> <path d="M495.425 190.935C494.968 188.54 492.719 186.968 490.361 187.443C488.021 187.9 486.486 190.222 486.924 192.616C487.381 195.029 489.648 196.583 491.988 196.126C494.364 195.651 495.882 193.329 495.425 190.935Z" fill="#3D6FB6"></path> <path d="M513.722 182.817C511.382 183.274 509.846 185.596 510.303 187.991C510.76 190.404 513.027 191.957 515.367 191.5C517.725 191.043 519.26 188.722 518.803 186.309C518.346 183.932 516.08 182.36 513.722 182.817Z" fill="#3D6FB6"></path> <path d="M533.668 183.402C534.125 185.815 536.392 187.369 538.732 186.912C541.09 186.455 542.626 184.133 542.169 181.738C541.712 179.344 539.445 177.772 537.087 178.247C534.747 178.686 533.211 181.007 533.668 183.402Z" fill="#3D6FB6"></path> <path d="M562.093 182.305C564.451 181.848 565.987 179.526 565.53 177.113C565.073 174.719 562.806 173.147 560.448 173.622C558.108 174.079 556.573 176.4 557.03 178.795C557.487 181.19 559.753 182.762 562.093 182.305Z" fill="#3D6FB6"></path> <path d="M580.388 174.188C580.845 176.601 583.112 178.155 585.452 177.698C587.792 177.241 589.309 174.956 588.889 172.561C587.847 171.757 586.823 170.916 585.763 170.13C585.251 169.746 584.703 169.399 584.191 169.033C584.063 169.052 583.953 168.997 583.825 169.033C581.485 169.472 579.931 171.794 580.388 174.188Z" fill="#3D6FB6"></path> <path d="M506.392 204.187C508.732 203.73 510.268 201.408 509.811 199.014C509.354 196.619 507.087 195.047 504.747 195.504C502.407 195.961 500.853 198.282 501.31 200.677C501.767 203.09 504.052 204.644 506.392 204.187Z" fill="#3D6FB6"></path> <path d="M524.675 196.071C525.133 198.484 527.418 200.037 529.757 199.58C532.097 199.123 533.633 196.802 533.176 194.407C532.719 192.012 530.452 190.44 528.112 190.897C525.772 191.354 524.218 193.676 524.675 196.071Z" fill="#3D6FB6"></path> <path d="M548.035 191.463C548.492 193.876 550.777 195.43 553.117 194.973C555.457 194.516 556.992 192.194 556.535 189.781C556.078 187.387 553.811 185.815 551.472 186.29C549.132 186.747 547.578 189.068 548.035 191.463Z" fill="#3D6FB6"></path> <path d="M576.478 190.367C578.818 189.91 580.353 187.588 579.896 185.193C579.439 182.799 577.173 181.227 574.833 181.684C572.493 182.141 570.939 184.462 571.396 186.857C571.853 189.27 574.138 190.842 576.478 190.367Z" fill="#3D6FB6"></path> <path d="M594.777 182.268C595.234 184.681 597.501 186.235 599.841 185.778C600.846 185.577 601.669 184.992 602.29 184.242C600.261 182.25 598.141 180.312 595.984 178.411C595.033 179.398 594.503 180.788 594.777 182.268Z" fill="#3D6FB6"></path> <path d="M499.391 211.973C498.934 209.56 496.686 208.006 494.328 208.463C491.988 208.92 490.452 211.242 490.891 213.637C491.348 216.031 493.615 217.603 495.955 217.146C498.331 216.671 499.848 214.368 499.391 211.973Z" fill="#3D6FB6"></path> <path d="M517.688 203.858C515.348 204.315 513.813 206.637 514.27 209.05C514.727 211.444 516.994 213.016 519.334 212.541C521.692 212.084 523.227 209.762 522.77 207.368C522.313 204.955 520.046 203.401 517.688 203.858Z" fill="#3D6FB6"></path> <path d="M541.054 199.251C538.714 199.708 537.178 202.029 537.635 204.442C538.092 206.837 540.359 208.409 542.699 207.952C545.057 207.477 546.592 205.173 546.135 202.779C545.678 200.347 543.412 198.794 541.054 199.251Z" fill="#3D6FB6"></path> <path d="M560.997 199.836C561.454 202.231 563.72 203.803 566.06 203.346C568.418 202.889 569.954 200.567 569.497 198.172C569.04 195.759 566.773 194.206 564.415 194.663C562.075 195.101 560.54 197.423 560.997 199.836Z" fill="#3D6FB6"></path> <path d="M589.42 198.72C591.778 198.263 593.313 195.941 592.856 193.546C592.399 191.134 590.132 189.58 587.774 190.037C585.434 190.494 583.899 192.815 584.356 195.228C584.813 197.623 587.08 199.195 589.42 198.72Z" fill="#3D6FB6"></path> <path d="M611.52 194.115C610.277 192.671 609.016 191.245 607.718 189.855C607.718 190.111 607.663 190.367 607.718 190.642C608.083 192.579 609.674 193.914 611.52 194.115Z" fill="#3D6FB6"></path> <path d="M495.024 140.078C493.123 140.096 491.221 140.133 489.32 140.206C489.521 140.371 489.668 140.59 489.905 140.718C491.624 141.705 493.671 141.358 495.024 140.078Z" fill="#3D6FB6"></path> <path d="M510.339 225.21C512.679 224.753 514.215 222.432 513.758 220.037C513.301 217.642 511.034 216.07 508.694 216.527C506.354 216.984 504.801 219.306 505.258 221.719C505.733 224.114 508 225.686 510.339 225.21Z" fill="#3D6FB6"></path> <path d="M532.079 211.919C529.739 212.376 528.185 214.697 528.642 217.11C529.099 219.505 531.384 221.077 533.724 220.62C536.064 220.163 537.6 217.842 537.143 215.429C536.686 213.034 534.419 211.462 532.079 211.919Z" fill="#3D6FB6"></path> <path d="M555.438 207.313C553.098 207.77 551.545 210.11 552.002 212.505C552.459 214.9 554.744 216.472 557.084 216.015C559.423 215.558 560.959 213.236 560.502 210.841C560.045 208.428 557.778 206.856 555.438 207.313Z" fill="#3D6FB6"></path> <path d="M575.363 207.898C575.82 210.292 578.105 211.865 580.445 211.408C582.785 210.951 584.32 208.629 583.881 206.234C583.424 203.84 581.158 202.268 578.818 202.725C576.46 203.182 574.906 205.503 575.363 207.898Z" fill="#3D6FB6"></path> <path d="M603.808 206.801C606.148 206.344 607.684 204.023 607.227 201.628C606.77 199.233 604.503 197.661 602.163 198.118C599.823 198.575 598.288 200.897 598.745 203.31C599.183 205.686 601.468 207.258 603.808 206.801Z" fill="#3D6FB6"></path> <path d="M503.359 232.996C502.902 230.602 500.654 229.029 498.296 229.505C495.956 229.962 494.42 232.283 494.877 234.678C495.334 237.091 497.601 238.645 499.941 238.188C502.299 237.712 503.816 235.391 503.359 232.996Z" fill="#3D6FB6"></path> <path d="M521.655 224.88C519.315 225.337 517.78 227.658 518.237 230.053C518.694 232.466 520.96 234.02 523.3 233.563C525.658 233.106 527.194 230.784 526.737 228.371C526.28 225.995 524.013 224.423 521.655 224.88Z" fill="#3D6FB6"></path> <path d="M545.02 220.274C542.681 220.731 541.145 223.053 541.602 225.448C542.059 227.861 544.326 229.414 546.666 228.957C549.024 228.5 550.559 226.179 550.102 223.766C549.645 221.389 547.378 219.817 545.02 220.274Z" fill="#3D6FB6"></path> <path d="M568.382 215.666C566.042 216.123 564.506 218.445 564.963 220.839C565.42 223.252 567.687 224.806 570.027 224.349C572.385 223.892 573.921 221.57 573.464 219.157C573.007 216.781 570.74 215.209 568.382 215.666Z" fill="#3D6FB6"></path> <path d="M588.326 216.251C588.783 218.664 591.05 220.218 593.389 219.761C595.748 219.304 597.283 216.982 596.826 214.588C596.369 212.193 594.102 210.621 591.744 211.078C589.423 211.535 587.869 213.857 588.326 216.251Z" fill="#3D6FB6"></path> <path d="M616.768 215.156C619.108 214.699 620.643 212.377 620.186 209.982C619.729 207.588 617.462 206.016 615.123 206.473C612.764 206.93 611.229 209.251 611.686 211.646C612.143 214.041 614.41 215.613 616.768 215.156Z" fill="#3D6FB6"></path> <path d="M514.306 246.249C516.646 245.792 518.182 243.471 517.725 241.076C517.268 238.681 515.001 237.109 512.661 237.566C510.321 238.023 508.767 240.345 509.224 242.74C509.7 245.134 511.966 246.706 514.306 246.249Z" fill="#3D6FB6"></path> <path d="M532.609 238.133C533.066 240.546 535.351 242.1 537.691 241.643C540.031 241.186 541.566 238.864 541.109 236.451C540.652 234.057 538.386 232.484 536.046 232.96C533.706 233.417 532.152 235.738 532.609 238.133Z" fill="#3D6FB6"></path> <path d="M559.405 228.352C557.065 228.809 555.511 231.131 555.968 233.525C556.425 235.938 558.71 237.492 561.05 237.035C563.39 236.578 564.926 234.257 564.469 231.844C564.012 229.449 561.745 227.895 559.405 228.352Z" fill="#3D6FB6"></path> <path d="M582.768 223.747C580.429 224.204 578.875 226.525 579.332 228.92C579.789 231.333 582.074 232.887 584.414 232.43C586.754 231.973 588.289 229.651 587.832 227.238C587.375 224.844 585.108 223.29 582.768 223.747Z" fill="#3D6FB6"></path> <path d="M602.711 224.314C603.168 226.727 605.435 228.28 607.775 227.823C610.115 227.366 611.65 225.045 611.193 222.632C610.736 220.237 608.47 218.665 606.13 219.122C603.79 219.597 602.254 221.919 602.711 224.314Z" fill="#3D6FB6"></path> <path d="M626.072 219.726C626.529 222.139 628.796 223.693 631.135 223.236C631.209 223.217 631.263 223.162 631.337 223.162C630.039 220.713 628.668 218.3 627.242 215.905C626.31 216.892 625.798 218.263 626.072 219.726Z" fill="#3D6FB6"></path> <path d="M522.206 251.092C522.663 253.487 524.929 255.059 527.269 254.602C529.627 254.145 531.163 251.823 530.706 249.41C530.249 247.016 527.982 245.443 525.624 245.919C523.284 246.376 521.749 248.679 522.206 251.092Z" fill="#3D6FB6"></path> <path d="M545.567 246.487C546.024 248.881 548.291 250.453 550.63 249.996C552.989 249.539 554.524 247.218 554.067 244.805C553.61 242.41 551.343 240.838 548.985 241.313C546.645 241.77 545.11 244.092 545.567 246.487Z" fill="#3D6FB6"></path> <path d="M572.348 236.706C570.009 237.163 568.473 239.484 568.93 241.879C569.387 244.274 571.654 245.846 573.994 245.389C576.352 244.932 577.887 242.61 577.43 240.197C576.973 237.802 574.707 236.249 572.348 236.706Z" fill="#3D6FB6"></path> <path d="M595.708 232.101C593.368 232.558 591.832 234.88 592.289 237.274C592.746 239.669 595.013 241.241 597.353 240.784C599.711 240.327 601.247 238.006 600.79 235.593C600.333 233.198 598.066 231.644 595.708 232.101Z" fill="#3D6FB6"></path> <path d="M615.653 232.668C616.11 235.063 618.377 236.635 620.735 236.178C623.074 235.721 624.61 233.399 624.153 231.005C623.696 228.61 621.429 227.038 619.089 227.495C616.731 227.952 615.196 230.274 615.653 232.668Z" fill="#3D6FB6"></path> <path d="M540.011 253.981C537.671 254.438 536.117 256.76 536.574 259.173C537.031 261.568 539.316 263.14 541.656 262.664C543.996 262.207 545.531 259.886 545.074 257.491C544.617 255.096 542.35 253.524 540.011 253.981Z" fill="#3D6FB6"></path> <path d="M586.735 244.767C584.395 245.224 582.842 247.564 583.299 249.959C583.756 252.354 586.04 253.926 588.38 253.451C590.72 252.994 592.256 250.672 591.799 248.277C591.342 245.883 589.075 244.31 586.735 244.767Z" fill="#3D6FB6"></path> <path d="M606.678 245.353C607.135 247.748 609.402 249.32 611.742 248.863C614.082 248.406 615.617 246.084 615.16 243.689C614.703 241.295 612.436 239.723 610.097 240.18C607.757 240.637 606.221 242.958 606.678 245.353Z" fill="#3D6FB6"></path> <path d="M633.458 235.572C631.118 236.029 629.582 238.351 630.039 240.764C630.496 243.158 632.763 244.73 635.103 244.273C637.461 243.816 638.978 241.495 638.521 239.1V239.082C638.046 236.669 635.798 235.097 633.458 235.572Z" fill="#3D6FB6"></path> <path d="M552.954 262.335C550.614 262.792 549.079 265.113 549.536 267.508C549.993 269.921 552.259 271.475 554.599 271.018C556.957 270.561 558.493 268.239 558.036 265.826C557.579 263.45 555.312 261.878 552.954 262.335Z" fill="#3D6FB6"></path> <path d="M543.977 275.021C541.638 275.478 540.084 277.818 540.541 280.194C540.998 282.607 543.283 284.161 545.623 283.704C547.962 283.247 549.498 280.926 549.041 278.531C548.584 276.118 546.317 274.546 543.977 275.021Z" fill="#3D6FB6"></path> <path d="M506.776 297.744C507.233 300.157 509.499 301.711 511.839 301.254C514.197 300.779 515.715 298.475 515.276 296.062C514.819 293.668 512.571 292.096 510.212 292.553C507.854 293.028 506.319 295.349 506.776 297.744Z" fill="#3D6FB6"></path> <path d="M553.502 288.549C553.959 290.962 556.226 292.516 558.566 292.059C560.924 291.602 562.46 289.28 562.003 286.867C561.546 284.473 559.279 282.901 556.921 283.376C554.581 283.833 553.045 286.136 553.502 288.549Z" fill="#3D6FB6"></path> <path d="M581.925 287.453C584.283 286.996 585.819 284.675 585.362 282.262C584.905 279.867 582.638 278.295 580.28 278.77C577.94 279.227 576.405 281.549 576.862 283.944C577.319 286.338 579.586 287.91 581.925 287.453Z" fill="#3D6FB6"></path> <path d="M646.656 270.124C646.875 271.129 647.387 271.988 648.045 272.774C647.68 270.91 647.259 269.045 646.839 267.181C646.528 268.113 646.418 269.1 646.656 270.124Z" fill="#3D6FB6"></path> <path d="M638.958 353.846C638.263 355.381 638.062 357.045 638.154 358.727C639.525 355.911 640.822 353.06 642.102 350.208C640.804 351.122 639.671 352.292 638.958 353.846Z" fill="#3D6FB6"></path> <path d="M544.488 301.218C544.945 303.613 547.23 305.185 549.57 304.728C551.91 304.271 553.445 301.949 552.988 299.555C552.531 297.16 550.265 295.588 547.925 296.045C545.603 296.502 544.05 298.823 544.488 301.218Z" fill="#3D6FB6"></path> <path d="M576.367 294.947C575.91 292.553 573.643 290.981 571.304 291.456C568.964 291.913 567.41 294.234 567.867 296.629C568.324 299.024 570.609 300.596 572.949 300.139C575.27 299.664 576.806 297.342 576.367 294.947Z" fill="#3D6FB6"></path> <path d="M623.091 285.733C622.634 283.339 620.367 281.767 618.027 282.242C615.687 282.699 614.152 285.021 614.59 287.415C615.047 289.81 617.314 291.382 619.654 290.925C621.994 290.45 623.529 288.128 623.091 285.733Z" fill="#3D6FB6"></path> <path d="M637.956 282.81C638.413 285.205 640.679 286.777 643.019 286.32C645.377 285.863 646.895 283.541 646.438 281.146C645.981 278.752 643.732 277.18 641.374 277.637C639.052 278.094 637.517 280.415 637.956 282.81Z" fill="#3D6FB6"></path> <path d="M565.969 307.907C565.512 305.512 563.246 303.94 560.888 304.397C558.548 304.854 557.012 307.176 557.469 309.589C557.926 311.984 560.193 313.556 562.533 313.08C564.873 312.605 566.426 310.302 565.969 307.907Z" fill="#3D6FB6"></path> <path d="M589.329 303.302C588.872 300.907 586.605 299.335 584.247 299.792C581.907 300.249 580.372 302.57 580.829 304.965C581.286 307.36 583.552 308.932 585.892 308.475C588.232 308.018 589.786 305.696 589.329 303.302Z" fill="#3D6FB6"></path> <path d="M636.055 294.089C635.598 291.694 633.332 290.122 630.992 290.579C628.634 291.036 627.098 293.358 627.555 295.771C628.012 298.165 630.279 299.737 632.637 299.262C634.959 298.805 636.512 296.483 636.055 294.089Z" fill="#3D6FB6"></path> <path d="M506.813 334.962C509.153 334.505 510.688 332.184 510.231 329.789C509.774 327.394 507.507 325.822 505.168 326.279C502.809 326.736 501.274 329.058 501.731 331.452C502.188 333.865 504.455 335.419 506.813 334.962Z" fill="#3D6FB6"></path> <path d="M576.898 321.143C579.238 320.686 580.773 318.364 580.316 315.97C579.859 313.575 577.593 312.003 575.253 312.46C572.913 312.917 571.359 315.238 571.816 317.633C572.273 320.046 574.558 321.618 576.898 321.143Z" fill="#3D6FB6"></path> <path d="M623.625 311.947C625.964 311.49 627.5 309.168 627.043 306.774C626.586 304.379 624.319 302.807 621.979 303.282C619.639 303.739 618.104 306.061 618.561 308.455C619.018 310.832 621.285 312.404 623.625 311.947Z" fill="#3D6FB6"></path> <path d="M645.358 298.658C643.018 299.115 641.483 301.437 641.94 303.831C642.397 306.244 644.664 307.798 647.003 307.341C648.21 307.103 649.179 306.372 649.8 305.403C649.855 303.886 649.892 302.387 649.91 300.87C649.014 299.261 647.241 298.292 645.358 298.658Z" fill="#3D6FB6"></path> <path d="M496.394 347.923C498.753 347.466 500.27 345.144 499.813 342.75C499.63 341.781 499.1 340.995 498.442 340.392C497.747 342.933 496.998 345.455 496.193 347.941C496.266 347.905 496.34 347.941 496.394 347.923Z" fill="#3D6FB6"></path> <path d="M514.709 339.807C515.166 342.22 517.433 343.774 519.773 343.317C522.131 342.86 523.648 340.538 523.191 338.143C522.734 335.749 520.486 334.177 518.128 334.634C515.788 335.091 514.252 337.412 514.709 339.807Z" fill="#3D6FB6"></path> <path d="M566.5 334.104C568.858 333.647 570.393 331.325 569.936 328.912C569.479 326.518 567.212 324.945 564.854 325.421C562.514 325.878 560.979 328.199 561.436 330.594C561.875 333.007 564.16 334.579 566.5 334.104Z" fill="#3D6FB6"></path> <path d="M636.584 320.302C638.924 319.845 640.46 317.524 640.003 315.129C639.546 312.734 637.279 311.162 634.939 311.619C632.581 312.094 631.045 314.398 631.502 316.792C631.978 319.187 634.244 320.759 636.584 320.302Z" fill="#3D6FB6"></path> <path d="M505.7 352.493C506.157 354.888 508.424 356.46 510.782 356.003C513.122 355.546 514.657 353.225 514.2 350.812C513.743 348.417 511.476 346.845 509.136 347.32C506.797 347.777 505.261 350.08 505.7 352.493Z" fill="#3D6FB6"></path> <path d="M580.865 342.183C583.205 341.726 584.74 339.404 584.283 337.01C583.826 334.615 581.559 333.043 579.22 333.5C576.88 333.957 575.326 336.278 575.783 338.673C576.24 341.068 578.525 342.64 580.865 342.183Z" fill="#3D6FB6"></path> <path d="M631.026 327.796C630.569 325.401 628.302 323.829 625.963 324.304C623.623 324.762 622.087 327.083 622.526 329.478C622.983 331.872 625.25 333.445 627.59 332.988C629.929 332.512 631.465 330.191 631.026 327.796Z" fill="#3D6FB6"></path> <path d="M645.885 324.872C646.086 325.895 646.653 326.718 647.366 327.339C647.805 324.908 648.189 322.477 648.499 320.027C646.671 320.813 645.502 322.769 645.885 324.872Z" fill="#3D6FB6"></path> <path d="M523.722 364.338C526.08 363.881 527.598 361.56 527.141 359.165C526.684 356.77 524.435 355.198 522.077 355.655C519.737 356.112 518.202 358.434 518.659 360.847C519.116 363.241 521.382 364.795 523.722 364.338Z" fill="#3D6FB6"></path> <path d="M547.085 359.733C549.444 359.276 550.979 356.954 550.522 354.559C550.065 352.165 547.798 350.593 545.44 351.05C543.1 351.507 541.565 353.828 542.022 356.241C542.479 358.636 544.746 360.208 547.085 359.733Z" fill="#3D6FB6"></path> <path d="M573.903 349.952C573.446 347.557 571.179 345.985 568.821 346.442C566.481 346.899 564.946 349.221 565.403 351.616C565.86 354.01 568.127 355.582 570.466 355.125C572.806 354.668 574.342 352.365 573.903 349.952Z" fill="#3D6FB6"></path> <path d="M597.262 345.347C596.805 342.952 594.539 341.38 592.181 341.837C589.841 342.294 588.305 344.615 588.762 347.01C589.219 349.405 591.486 350.977 593.826 350.52C596.165 350.063 597.701 347.76 597.262 345.347Z" fill="#3D6FB6"></path> <path d="M620.626 340.758C620.169 338.363 617.902 336.791 615.544 337.248C613.204 337.705 611.668 340.027 612.125 342.439C612.582 344.834 614.849 346.406 617.189 345.931C619.529 345.474 621.064 343.152 620.626 340.758Z" fill="#3D6FB6"></path> <path d="M638.925 332.641C636.567 333.116 635.032 335.437 635.489 337.832C635.946 340.227 638.212 341.799 640.57 341.324C642.91 340.867 644.446 338.545 643.989 336.15C643.532 333.756 641.265 332.184 638.925 332.641Z" fill="#3D6FB6"></path> <path d="M518.165 371.834C517.708 369.439 515.441 367.867 513.101 368.343C510.743 368.8 509.207 371.121 509.664 373.516C510.121 375.929 512.388 377.483 514.746 377.026C517.086 376.569 518.622 374.247 518.165 371.834Z" fill="#3D6FB6"></path> <path d="M541.529 367.227C541.072 364.832 538.806 363.26 536.466 363.735C534.126 364.192 532.572 366.514 533.029 368.908C533.486 371.321 535.771 372.875 538.111 372.418C540.451 371.961 541.986 369.64 541.529 367.227Z" fill="#3D6FB6"></path> <path d="M564.891 362.639C564.434 360.244 562.167 358.672 559.827 359.147C557.487 359.604 555.933 361.926 556.39 364.321C556.847 366.733 559.132 368.287 561.472 367.83C563.812 367.355 565.348 365.033 564.891 362.639Z" fill="#3D6FB6"></path> <path d="M588.25 358.031C587.793 355.637 585.526 354.065 583.186 354.54C580.847 354.997 579.293 357.318 579.75 359.713C580.207 362.126 582.492 363.68 584.832 363.223C587.171 362.748 588.707 360.426 588.25 358.031Z" fill="#3D6FB6"></path> <path d="M611.613 353.426C611.156 351.031 608.89 349.459 606.55 349.934C604.21 350.391 602.656 352.713 603.113 355.108C603.57 357.521 605.855 359.074 608.195 358.617C610.535 358.142 612.07 355.839 611.613 353.426Z" fill="#3D6FB6"></path> <path d="M629.931 345.309C627.591 345.766 626.055 348.087 626.512 350.482C626.969 352.895 629.236 354.449 631.576 353.992C633.916 353.535 635.451 351.213 634.994 348.8C634.537 346.424 632.252 344.852 629.931 345.309Z" fill="#3D6FB6"></path> <path d="M499.263 386.475C499.72 388.888 501.968 390.442 504.327 389.985C506.685 389.528 508.202 387.206 507.763 384.811C507.306 382.417 505.058 380.845 502.7 381.302C500.341 381.759 498.824 384.08 499.263 386.475Z" fill="#3D6FB6"></path> <path d="M531.128 380.188C530.671 377.793 528.422 376.221 526.064 376.696C523.724 377.153 522.189 379.475 522.628 381.869C523.085 384.282 525.351 385.836 527.691 385.379C530.049 384.904 531.585 382.601 531.128 380.188Z" fill="#3D6FB6"></path> <path d="M554.507 375.581C554.05 373.186 551.783 371.614 549.425 372.09C547.085 372.547 545.549 374.868 546.006 377.263C546.463 379.676 548.73 381.23 551.07 380.773C553.41 380.316 554.945 377.994 554.507 375.581Z" fill="#3D6FB6"></path> <path d="M574.415 376.164C576.774 375.707 578.309 373.386 577.852 370.973C577.395 368.578 575.128 367.006 572.77 367.481C570.431 367.938 568.895 370.26 569.352 372.655C569.809 375.068 572.076 376.621 574.415 376.164Z" fill="#3D6FB6"></path> <path d="M597.775 371.559C600.133 371.102 601.669 368.78 601.212 366.367C600.755 363.973 598.488 362.401 596.13 362.876C593.79 363.333 592.254 365.654 592.711 368.049C593.168 370.462 595.453 372.034 597.775 371.559Z" fill="#3D6FB6"></path> <path d="M619.511 358.268C617.171 358.725 615.635 361.047 616.092 363.442C616.549 365.855 618.816 367.409 621.156 366.952C623.514 366.495 625.049 364.173 624.592 361.76C624.135 359.384 621.869 357.811 619.511 358.268Z" fill="#3D6FB6"></path> <path d="M493.706 393.97C491.366 394.427 489.831 396.748 490.288 399.143C490.745 401.538 493.011 403.11 495.351 402.653C497.709 402.196 499.245 399.874 498.788 397.461C498.313 395.085 496.046 393.513 493.706 393.97Z" fill="#3D6FB6"></path> <path d="M518.713 398.047C521.053 397.59 522.588 395.269 522.131 392.874C521.674 390.479 519.408 388.907 517.068 389.364C514.71 389.821 513.174 392.143 513.631 394.537C514.088 396.95 516.355 398.522 518.713 398.047Z" fill="#3D6FB6"></path> <path d="M542.076 393.44C544.416 392.983 545.951 390.661 545.494 388.266C545.037 385.872 542.77 384.3 540.431 384.757C538.091 385.214 536.537 387.535 536.994 389.93C537.451 392.343 539.736 393.915 542.076 393.44Z" fill="#3D6FB6"></path> <path d="M565.439 388.852C567.779 388.395 569.314 386.073 568.857 383.679C568.4 381.284 566.134 379.712 563.794 380.187C561.454 380.644 559.9 382.966 560.357 385.361C560.814 387.737 563.099 389.309 565.439 388.852Z" fill="#3D6FB6"></path> <path d="M588.798 384.246C591.138 383.789 592.674 381.468 592.217 379.073C591.76 376.678 589.493 375.106 587.153 375.563C584.813 376.02 583.26 378.342 583.717 380.737C584.174 383.131 586.458 384.703 588.798 384.246Z" fill="#3D6FB6"></path> <path d="M610.516 370.956C608.177 371.413 606.623 373.734 607.08 376.129C607.537 378.524 609.822 380.096 612.162 379.639C614.502 379.182 616.037 376.86 615.58 374.465C615.141 372.052 612.856 370.499 610.516 370.956Z" fill="#3D6FB6"></path> <path d="M630.459 371.523C630.606 372.29 630.989 372.93 631.446 373.479C632.69 371.121 633.878 368.744 634.975 366.349C634.609 366.331 634.262 366.276 633.878 366.349C631.538 366.806 630.002 369.128 630.459 371.523Z" fill="#3D6FB6"></path> <path d="M484.932 415.614C487.29 415.157 488.807 412.835 488.35 410.44C487.893 408.046 485.645 406.474 483.287 406.931C480.929 407.388 479.411 409.709 479.868 412.122C480.325 414.499 482.592 416.071 484.932 415.614Z" fill="#3D6FB6"></path> <path d="M508.297 411.007C510.655 410.55 512.172 408.229 511.715 405.834C511.258 403.439 509.01 401.867 506.652 402.324C504.294 402.781 502.777 405.103 503.234 407.497C503.691 409.892 505.957 411.464 508.297 411.007Z" fill="#3D6FB6"></path> <path d="M531.656 406.4C534.014 405.943 535.531 403.621 535.074 401.226C534.617 398.832 532.369 397.26 530.011 397.717C527.671 398.174 526.135 400.495 526.592 402.89C527.049 405.285 529.316 406.857 531.656 406.4Z" fill="#3D6FB6"></path> <path d="M555.019 401.795C557.377 401.338 558.913 399.017 558.456 396.622C557.999 394.227 555.732 392.655 553.374 393.112C551.034 393.569 549.499 395.891 549.956 398.304C550.413 400.68 552.679 402.252 555.019 401.795Z" fill="#3D6FB6"></path> <path d="M578.382 397.189C580.741 396.732 582.276 394.41 581.819 392.016C581.362 389.621 579.095 388.049 576.737 388.506C574.397 388.963 572.862 391.284 573.319 393.679C573.776 396.074 576.043 397.664 578.382 397.189Z" fill="#3D6FB6"></path> <path d="M600.116 383.897C597.776 384.354 596.241 386.676 596.698 389.071C597.155 391.465 599.421 393.037 601.761 392.58C604.119 392.123 605.655 389.802 605.198 387.407C604.741 385.012 602.456 383.44 600.116 383.897Z" fill="#3D6FB6"></path> <path d="M623.477 379.309C621.138 379.766 619.602 382.088 620.059 384.501C620.37 386.109 621.521 387.279 622.947 387.773C624.501 385.433 626 383.075 627.426 380.68C626.42 379.602 624.995 378.998 623.477 379.309Z" fill="#3D6FB6"></path> <path d="M450.932 424.205C448.593 424.662 447.057 426.984 447.514 429.378C447.971 431.791 450.238 433.345 452.578 432.888C454.936 432.413 456.471 430.109 456.014 427.697C455.557 425.32 453.291 423.748 450.932 424.205Z" fill="#3D6FB6"></path> <path d="M479.374 423.108C478.917 420.714 476.65 419.142 474.292 419.617C471.952 420.074 470.416 422.396 470.873 424.79C471.33 427.203 473.597 428.757 475.937 428.3C478.295 427.825 479.831 425.503 479.374 423.108Z" fill="#3D6FB6"></path> <path d="M502.736 418.502C502.279 416.107 500.012 414.535 497.654 415.011C495.314 415.468 493.779 417.789 494.217 420.184C494.674 422.597 496.941 424.151 499.281 423.694C501.657 423.218 503.193 420.897 502.736 418.502Z" fill="#3D6FB6"></path> <path d="M522.682 419.07C525.022 418.613 526.557 416.291 526.1 413.896C525.643 411.502 523.377 409.93 521.037 410.387C518.679 410.844 517.143 413.165 517.6 415.56C518.057 417.973 520.324 419.545 522.682 419.07Z" fill="#3D6FB6"></path> <path d="M546.044 414.482C548.384 414.025 549.92 411.703 549.463 409.309C549.006 406.914 546.739 405.342 544.399 405.799C542.059 406.256 540.506 408.577 540.963 410.972C541.42 413.367 543.705 414.939 546.044 414.482Z" fill="#3D6FB6"></path> <path d="M572.822 404.683C572.365 402.288 570.099 400.716 567.759 401.191C565.419 401.648 563.865 403.97 564.322 406.364C564.779 408.777 567.064 410.331 569.404 409.874C571.744 409.417 573.279 407.096 572.822 404.683Z" fill="#3D6FB6"></path> <path d="M591.12 396.585C588.78 397.042 587.226 399.363 587.683 401.758C588.14 404.171 590.425 405.725 592.765 405.268C595.105 404.811 596.641 402.489 596.184 400.095C595.727 397.7 593.46 396.128 591.12 396.585Z" fill="#3D6FB6"></path> <path d="M614.483 391.978C612.143 392.435 610.59 394.775 611.047 397.151C611.321 398.65 612.363 399.747 613.624 400.295C615.379 398.156 617.079 395.963 618.742 393.696C617.792 392.398 616.165 391.649 614.483 391.978Z" fill="#3D6FB6"></path> <path d="M440.548 437.166C438.19 437.623 436.673 439.944 437.13 442.339C437.587 444.752 439.835 446.306 442.194 445.849C444.552 445.374 446.069 443.07 445.612 440.657C445.155 438.263 442.888 436.691 440.548 437.166Z" fill="#3D6FB6"></path> <path d="M463.912 432.561C461.554 433.018 460.036 435.34 460.493 437.734C460.95 440.147 463.199 441.701 465.557 441.244C467.915 440.769 469.432 438.466 468.975 436.053C468.518 433.658 466.252 432.104 463.912 432.561Z" fill="#3D6FB6"></path> <path d="M487.271 427.952C484.913 428.409 483.396 430.731 483.853 433.125C484.31 435.538 486.558 437.092 488.916 436.635C491.274 436.178 492.792 433.857 492.335 431.444C491.878 429.067 489.611 427.495 487.271 427.952Z" fill="#3D6FB6"></path> <path d="M515.698 426.856C515.241 424.462 512.992 422.89 510.634 423.347C508.276 423.804 506.759 426.125 507.216 428.52C507.673 430.933 509.921 432.487 512.28 432.03C514.619 431.573 516.137 429.251 515.698 426.856Z" fill="#3D6FB6"></path> <path d="M539.059 422.248C538.602 419.853 536.354 418.281 533.996 418.757C531.656 419.214 530.12 421.535 530.559 423.93C531.016 426.343 533.283 427.897 535.623 427.44C537.981 426.964 539.498 424.661 539.059 422.248Z" fill="#3D6FB6"></path> <path d="M557.36 414.151C555.02 414.608 553.485 416.93 553.942 419.324C554.399 421.737 556.666 423.291 559.005 422.834C561.364 422.359 562.899 420.056 562.442 417.643C561.985 415.248 559.7 413.676 557.36 414.151Z" fill="#3D6FB6"></path> <path d="M580.72 409.544C578.38 410.001 576.844 412.322 577.301 414.717C577.758 417.13 580.025 418.684 582.365 418.227C584.723 417.752 586.258 415.448 585.801 413.035C585.344 410.641 583.059 409.068 580.72 409.544Z" fill="#3D6FB6"></path> <path d="M604.081 404.939C601.741 405.396 600.206 407.717 600.663 410.112C600.864 411.209 601.485 412.105 602.289 412.744C604.318 410.752 606.311 408.686 608.249 406.547C607.262 405.304 605.708 404.61 604.081 404.939Z" fill="#3D6FB6"></path> <path d="M501.622 436.033C499.282 436.49 497.747 438.811 498.204 441.206C498.661 443.601 500.927 445.173 503.267 444.716C505.625 444.259 507.161 441.937 506.704 439.524C506.247 437.13 503.98 435.576 501.622 436.033Z" fill="#3D6FB6"></path> <path d="M525.003 431.427C522.645 431.884 521.11 434.206 521.567 436.601C522.024 438.995 524.291 440.567 526.649 440.11C528.989 439.653 530.524 437.332 530.067 434.937C529.61 432.524 527.343 430.97 525.003 431.427Z" fill="#3D6FB6"></path> <path d="M548.366 426.819C546.026 427.276 544.472 429.598 544.929 431.993C545.386 434.387 547.671 435.959 550.011 435.502C552.351 435.045 553.887 432.724 553.43 430.311C552.973 427.934 550.706 426.362 548.366 426.819Z" fill="#3D6FB6"></path> <path d="M571.725 422.214C569.386 422.671 567.832 424.992 568.289 427.387C568.746 429.782 571.031 431.354 573.371 430.897C575.71 430.44 577.246 428.118 576.789 425.705C576.332 423.329 574.065 421.757 571.725 422.214Z" fill="#3D6FB6"></path> <path d="M595.088 417.607C592.912 418.027 591.505 420.057 591.651 422.268C593.461 420.788 595.234 419.27 596.989 417.698C596.386 417.552 595.746 417.479 595.088 417.607Z" fill="#3D6FB6"></path> <path d="M474.844 454.24C473.198 452.777 470.712 452.869 469.049 454.313C471.316 454.861 473.601 455.355 475.904 455.812C475.666 455.227 475.337 454.679 474.844 454.24Z" fill="#3D6FB6"></path> <path d="M561.327 435.174C558.987 435.631 557.452 437.952 557.909 440.347C558.091 441.279 558.585 442.01 559.206 442.614C561.638 441.499 564.032 440.292 566.409 439.049C566.391 438.921 566.427 438.793 566.409 438.665C565.952 436.27 563.667 434.698 561.327 435.174Z" fill="#3D6FB6"></path> <path d="M495.113 450.218C492.773 449.725 490.452 451.242 489.922 453.618C489.721 454.532 489.885 455.41 490.214 456.214C492.883 456.141 495.57 455.995 498.257 455.775C498.294 455.647 498.385 455.556 498.404 455.428C498.915 453.07 497.453 450.73 495.113 450.218Z" fill="#3D6FB6"></path> <path d="M518.273 267.272C520.613 266.815 522.148 264.493 521.691 262.099C521.234 259.704 518.968 258.132 516.628 258.589C514.288 259.046 512.734 261.367 513.191 263.78C513.648 266.157 515.933 267.729 518.273 267.272Z" fill="#3D6FB6"></path> <path d="M559.935 254.567C560.392 256.962 562.677 258.534 565.017 258.059C567.357 257.602 568.893 255.28 568.436 252.886C567.979 250.491 565.712 248.919 563.372 249.376C561.032 249.833 559.478 252.154 559.935 254.567Z" fill="#3D6FB6"></path> <path d="M511.293 275.04C510.836 272.645 508.587 271.073 506.229 271.549C503.889 272.006 502.354 274.327 502.811 276.722C503.268 279.135 505.535 280.689 507.875 280.232C510.214 279.756 511.75 277.453 511.293 275.04Z" fill="#3D6FB6"></path> <path d="M529.591 266.942C527.251 267.399 525.715 269.721 526.172 272.115C526.629 274.528 528.896 276.082 531.236 275.625C533.594 275.168 535.13 272.847 534.673 270.434C534.216 268.039 531.949 266.467 529.591 266.942Z" fill="#3D6FB6"></path> <path d="M572.895 262.904C573.352 265.317 575.619 266.871 577.958 266.414C580.317 265.957 581.852 263.635 581.395 261.24C580.938 258.846 578.671 257.274 576.313 257.749C573.973 258.188 572.438 260.509 572.895 262.904Z" fill="#3D6FB6"></path> <path d="M599.677 253.122C597.337 253.579 595.801 255.901 596.258 258.295C596.715 260.708 598.982 262.262 601.322 261.805C603.68 261.348 605.216 259.026 604.759 256.614C604.302 254.237 602.035 252.665 599.677 253.122Z" fill="#3D6FB6"></path> <path d="M619.62 253.708C620.077 256.121 622.343 257.675 624.701 257.218C627.041 256.761 628.577 254.44 628.12 252.045C627.663 249.65 625.396 248.078 623.056 248.535C620.698 248.992 619.163 251.314 619.62 253.708Z" fill="#3D6FB6"></path> <path d="M525.68 283.12C525.223 280.726 522.956 279.153 520.616 279.629C518.276 280.086 516.722 282.407 517.179 284.802C517.636 287.215 519.921 288.769 522.261 288.312C524.583 287.836 526.118 285.515 525.68 283.12Z" fill="#3D6FB6"></path> <path d="M568.966 279.098C571.306 278.641 572.842 276.319 572.385 273.925C571.928 271.53 569.661 269.958 567.321 270.415C564.981 270.872 563.427 273.194 563.884 275.588C564.341 278.001 566.626 279.555 568.966 279.098Z" fill="#3D6FB6"></path> <path d="M587.265 270.982C587.722 273.395 590.007 274.948 592.347 274.491C594.687 274.034 596.223 271.713 595.766 269.3C595.309 266.905 593.042 265.333 590.702 265.808C588.362 266.265 586.808 268.587 587.265 270.982Z" fill="#3D6FB6"></path> <path d="M615.691 269.885C618.031 269.428 619.566 267.106 619.109 264.712C618.652 262.317 616.386 260.745 614.046 261.202C611.706 261.659 610.17 263.981 610.627 266.375C611.084 268.788 613.351 270.342 615.691 269.885Z" fill="#3D6FB6"></path> <path d="M639.05 265.28C641.408 264.823 642.926 262.501 642.469 260.106C642.012 257.712 639.763 256.14 637.405 256.597C635.065 257.054 633.53 259.375 633.987 261.77C634.444 264.183 636.711 265.737 639.05 265.28Z" fill="#3D6FB6"></path> <path d="M530.139 293.137C530.596 295.55 532.863 297.104 535.203 296.647C537.561 296.19 539.096 293.868 538.639 291.455C538.182 289.06 535.916 287.488 533.557 287.964C531.218 288.439 529.682 290.742 530.139 293.137Z" fill="#3D6FB6"></path> <path d="M608.727 277.654C608.27 275.26 606.004 273.688 603.645 274.163C601.306 274.62 599.77 276.941 600.227 279.336C600.684 281.749 602.951 283.303 605.291 282.846C607.63 282.389 609.184 280.067 608.727 277.654Z" fill="#3D6FB6"></path> <path d="M623.588 274.73C624.045 277.143 626.312 278.697 628.67 278.24C631.01 277.783 632.545 275.461 632.107 273.066C631.65 270.672 629.383 269.1 627.043 269.557C624.667 270.014 623.131 272.335 623.588 274.73Z" fill="#3D6FB6"></path> <path d="M526.209 309.334C528.548 308.877 530.084 306.556 529.627 304.161C529.17 301.766 526.903 300.194 524.563 300.651C522.223 301.108 520.67 303.43 521.127 305.825C521.584 308.219 523.869 309.791 526.209 309.334Z" fill="#3D6FB6"></path> <path d="M599.732 290.342C599.275 287.947 597.009 286.375 594.669 286.85C592.329 287.307 590.775 289.629 591.232 292.024C591.689 294.418 593.974 295.99 596.314 295.533C598.636 295.058 600.171 292.737 599.732 290.342Z" fill="#3D6FB6"></path> <path d="M515.806 322.276C518.164 321.819 519.682 319.497 519.225 317.102C518.768 314.708 516.519 313.136 514.161 313.593C511.821 314.05 510.286 316.371 510.743 318.784C511.181 321.179 513.466 322.751 515.806 322.276Z" fill="#3D6FB6"></path> <path d="M542.606 312.496C542.149 310.101 539.882 308.529 537.524 308.986C535.184 309.443 533.649 311.765 534.106 314.16C534.563 316.554 536.83 318.126 539.17 317.669C541.509 317.212 543.045 314.909 542.606 312.496Z" fill="#3D6FB6"></path> <path d="M612.694 298.693C612.237 296.299 609.97 294.727 607.612 295.184C605.272 295.641 603.737 297.962 604.194 300.375C604.651 302.77 606.917 304.342 609.257 303.867C611.597 303.41 613.151 301.088 612.694 298.693Z" fill="#3D6FB6"></path> <path d="M533.594 325.182C533.137 322.787 530.87 321.215 528.53 321.69C526.19 322.147 524.636 324.469 525.093 326.863C525.55 329.276 527.835 330.83 530.175 330.373C532.515 329.898 534.051 327.576 533.594 325.182Z" fill="#3D6FB6"></path> <path d="M556.957 320.576C556.5 318.182 554.233 316.609 551.893 317.085C549.554 317.542 548 319.863 548.457 322.258C548.914 324.671 551.199 326.225 553.539 325.768C555.878 325.293 557.414 322.971 556.957 320.576Z" fill="#3D6FB6"></path> <path d="M600.263 316.555C602.603 316.098 604.139 313.776 603.682 311.382C603.225 308.987 600.958 307.415 598.618 307.872C596.278 308.329 594.724 310.651 595.181 313.045C595.638 315.44 597.923 317.012 600.263 316.555Z" fill="#3D6FB6"></path> <path d="M543.138 338.709C545.496 338.252 547.032 335.931 546.575 333.518C546.118 331.123 543.851 329.551 541.493 330.026C539.153 330.483 537.618 332.805 538.075 335.199C538.513 337.612 540.798 339.166 543.138 338.709Z" fill="#3D6FB6"></path> <path d="M589.859 329.516C592.217 329.059 593.753 326.737 593.296 324.324C592.839 321.93 590.572 320.358 588.214 320.833C585.874 321.29 584.338 323.611 584.795 326.006C585.234 328.401 587.519 329.973 589.859 329.516Z" fill="#3D6FB6"></path> <path d="M613.222 324.907C615.58 324.45 617.116 322.129 616.659 319.716C616.202 317.321 613.935 315.749 611.577 316.224C609.237 316.681 607.702 319.003 608.159 321.398C608.597 323.792 610.882 325.364 613.222 324.907Z" fill="#3D6FB6"></path> <path d="M534.144 351.395C536.484 350.938 538.019 348.616 537.562 346.222C537.105 343.827 534.839 342.255 532.499 342.712C530.159 343.169 528.605 345.49 529.062 347.885C529.519 350.28 531.804 351.852 534.144 351.395Z" fill="#3D6FB6"></path> <path d="M557.505 346.789C559.845 346.332 561.381 344.011 560.924 341.616C560.467 339.221 558.2 337.649 555.86 338.106C553.52 338.563 551.967 340.885 552.424 343.28C552.881 345.674 555.166 347.246 557.505 346.789Z" fill="#3D6FB6"></path> <path d="M607.668 332.403C607.211 330.009 604.944 328.437 602.604 328.912C600.264 329.369 598.711 331.691 599.168 334.085C599.625 336.48 601.91 338.052 604.249 337.595C606.571 337.12 608.107 334.798 607.668 332.403Z" fill="#3D6FB6"></path> <path d="M350.811 144.265C266.046 144.265 197.075 213.235 197.075 298C197.075 382.765 266.046 451.735 350.811 451.735C435.575 451.735 504.546 382.765 504.546 298C504.546 213.235 435.575 144.265 350.811 144.265ZM350.811 457C263.139 457 191.811 385.671 191.811 298C191.811 210.329 263.139 139 350.811 139C438.482 139 509.811 210.329 509.811 298C509.811 385.671 438.482 457 350.811 457Z" fill="#D13F66"></path> <path d="M350.811 153.625C271.202 153.625 206.417 218.391 206.417 298.019C206.417 377.629 271.183 442.395 350.811 442.395C430.421 442.395 495.187 377.629 495.187 298.019C495.187 218.391 430.421 153.625 350.811 153.625ZM350.811 447.66C268.295 447.66 201.152 380.517 201.152 298.001C201.152 215.484 268.295 148.342 350.811 148.342C433.327 148.342 500.47 215.484 500.47 298.001C500.452 380.517 433.327 447.66 350.811 447.66Z" fill="#D13F66"></path> <path d="M350.813 162.967C276.358 162.967 215.778 223.547 215.778 298.002C215.778 372.456 276.358 433.037 350.813 433.037C425.268 433.037 485.848 372.456 485.848 298.002C485.848 223.547 425.268 162.967 350.813 162.967ZM350.813 438.319C273.452 438.319 210.514 375.381 210.514 298.02C210.514 220.659 273.452 157.702 350.813 157.702C428.174 157.702 491.113 220.64 491.113 298.02C491.113 375.399 428.174 438.319 350.813 438.319Z" fill="#D13F66"></path> <path d="M350.812 172.324C281.512 172.324 225.118 228.7 225.118 298.018C225.118 367.317 281.494 423.711 350.812 423.711C420.13 423.711 476.506 367.317 476.506 298.018C476.487 228.7 420.112 172.324 350.812 172.324ZM350.812 428.958C278.606 428.958 219.854 370.206 219.854 297.999C219.854 225.793 278.606 167.041 350.812 167.041C423.018 167.041 481.77 225.793 481.77 297.999C481.77 370.206 423.018 428.958 350.812 428.958Z" fill="#D13F66"></path> <path d="M350.811 181.666C286.666 181.666 234.476 233.855 234.476 298C234.476 362.145 286.666 414.334 350.811 414.334C414.955 414.334 467.145 362.145 467.145 298C467.145 233.855 414.955 181.666 350.811 181.666ZM350.811 419.617C283.759 419.617 229.193 365.07 229.193 298C229.193 230.949 283.741 176.383 350.811 176.383C417.88 176.383 472.428 230.93 472.428 298C472.41 365.051 417.862 419.617 350.811 419.617Z" fill="#D13F66"></path> <path d="M350.813 191.008C291.823 191.008 243.819 239.011 243.819 298.001C243.819 356.991 291.823 404.994 350.813 404.994C409.802 404.994 457.806 356.991 457.806 298.001C457.806 239.011 409.802 191.008 350.813 191.008ZM350.813 410.259C288.916 410.259 238.555 359.897 238.555 298.001C238.555 236.105 288.916 185.743 350.813 185.743C412.709 185.743 463.07 236.105 463.07 298.001C463.07 359.897 412.709 410.259 350.813 410.259Z" fill="#D13F66"></path> <path d="M350.809 200.366C296.975 200.366 253.157 244.165 253.157 298C253.157 351.835 296.956 395.652 350.809 395.652C404.644 395.652 448.443 351.853 448.443 298C448.443 244.165 404.644 200.366 350.809 200.366ZM350.809 400.917C294.068 400.917 247.893 354.741 247.893 298C247.893 241.258 294.068 195.083 350.809 195.083C407.551 195.083 453.726 241.258 453.726 298C453.708 354.741 407.551 400.917 350.809 400.917Z" fill="#D13F66"></path> <path d="M350.815 209.707C302.135 209.707 262.522 249.32 262.522 298C262.522 346.68 302.135 386.292 350.815 386.292C399.495 386.292 439.108 346.68 439.108 298C439.108 249.32 399.495 209.707 350.815 209.707ZM350.815 391.575C299.229 391.575 257.258 349.604 257.258 298.018C257.258 246.432 299.229 204.442 350.815 204.442C402.402 204.442 444.373 246.413 444.373 298.018C444.373 349.586 402.402 391.575 350.815 391.575Z" fill="#D13F66"></path> <path d="M350.812 219.067C307.287 219.067 271.86 254.476 271.86 298.019C271.86 341.544 307.269 376.97 350.812 376.97C394.337 376.97 429.764 341.562 429.764 298.019C429.745 254.476 394.337 219.067 350.812 219.067ZM350.812 382.217C304.381 382.217 266.596 344.432 266.596 298C266.596 251.569 304.381 213.784 350.812 213.784C397.243 213.784 435.028 251.569 435.028 298C435.028 344.432 397.243 382.217 350.812 382.217Z" fill="#D13F66"></path> <path d="M350.811 228.407C312.441 228.407 281.218 259.629 281.218 297.999C281.218 336.369 312.441 367.591 350.811 367.591C389.181 367.591 420.403 336.369 420.403 297.999C420.403 259.629 389.181 228.407 350.811 228.407ZM350.811 372.874C309.534 372.874 275.936 339.294 275.936 297.999C275.936 256.723 309.516 223.124 350.811 223.124C392.087 223.124 425.686 256.704 425.686 297.999C425.668 339.276 392.087 372.874 350.811 372.874Z" fill="#D13F66"></path> <path d="M350.813 237.748C317.598 237.748 290.562 264.784 290.562 297.999C290.562 331.214 317.598 358.25 350.813 358.25C384.027 358.25 411.064 331.214 411.064 297.999C411.045 264.784 384.027 237.748 350.813 237.748ZM350.813 363.515C314.691 363.515 285.297 334.121 285.297 297.999C285.297 261.878 314.691 232.483 350.813 232.483C386.934 232.483 416.328 261.878 416.328 297.999C416.328 334.139 386.934 363.515 350.813 363.515Z" fill="#D13F66"></path> <path d="M350.811 247.109C322.751 247.109 299.92 269.941 299.92 298.019C299.92 326.097 322.751 348.929 350.811 348.929C378.871 348.929 401.703 326.097 401.703 298.019C401.703 269.941 378.871 247.109 350.811 247.109ZM350.811 354.175C319.845 354.175 294.637 328.985 294.637 298.001C294.637 267.016 319.845 241.826 350.811 241.826C381.778 241.826 406.986 267.016 406.986 298.001C406.986 328.985 381.778 354.175 350.811 354.175Z" fill="#D13F66"></path> <path d="M350.811 256.449C327.906 256.449 309.261 275.094 309.261 297.999C309.261 320.904 327.906 339.55 350.811 339.55C373.716 339.55 392.362 320.904 392.362 297.999C392.362 275.094 373.716 256.449 350.811 256.449ZM350.811 344.833C325 344.833 303.996 323.829 303.996 298.017C303.996 272.206 325 251.202 350.811 251.202C376.623 251.202 397.627 272.206 397.627 298.017C397.627 323.829 376.623 344.833 350.811 344.833Z" fill="#D13F66"></path> <path d="M350.814 265.809C333.064 265.809 318.605 280.251 318.605 298.019C318.605 315.769 333.046 330.228 350.814 330.228C368.564 330.228 383.023 315.787 383.023 298.019C383.005 280.251 368.564 265.809 350.814 265.809ZM350.814 335.475C330.158 335.475 313.34 318.657 313.34 298.001C313.34 277.344 330.158 260.526 350.814 260.526C371.47 260.526 388.288 277.344 388.288 298.001C388.288 318.675 371.47 335.475 350.814 335.475Z" fill="#D13F66"></path> <path d="M350.813 275.15C338.218 275.15 327.963 285.405 327.963 298C327.963 310.595 338.218 320.85 350.813 320.85C363.408 320.85 373.663 310.595 373.663 298C373.663 285.405 363.408 275.15 350.813 275.15ZM350.813 326.133C335.311 326.133 322.68 313.52 322.68 298C322.68 282.499 335.293 269.867 350.813 269.867C366.314 269.867 378.946 282.48 378.946 298C378.927 313.52 366.314 326.133 350.813 326.133Z" fill="#D13F66"></path> <path d="M363.863 298C363.863 305.202 357.995 311.07 350.793 311.07C343.591 311.07 337.741 305.202 337.741 298C337.741 290.798 343.591 284.93 350.793 284.93C358.013 284.948 363.863 290.798 363.863 298ZM350.811 279.793C340.775 279.793 332.586 287.964 332.586 298.018C332.586 308.054 340.757 316.243 350.811 316.243C360.865 316.243 369.036 308.072 369.036 298.018C369.018 287.964 360.847 279.793 350.811 279.793Z" fill="#D13F66"></path> <path d="M289.646 233.418H51V362.585H289.646V233.418Z" fill="#D13F66"></path> <path d="M186.691 346.514H149.546V313.702H130.553V346.514H93.4082V248.789H130.553V281.602H149.546V248.789H186.691V346.514Z" fill="white"></path> <path d="M239.612 248.789H202.467V346.533H239.612V248.789Z" fill="white"></path> <path d="M378.669 346.514H338.873L328.673 305.896L318.619 346.514H278.695L249.502 248.789H289.444L301.308 300.028L313.884 248.789H343.48L355.91 300.028L367.774 248.789H407.844L378.669 346.514Z" fill="#020203"></path> <path d="M461.041 310.228L456.855 295.147C455.593 290.541 454.478 285.367 453.93 280.487C453.363 285.367 452.248 290.541 451.005 295.147L446.673 310.228H461.041ZM433.95 248.789H473.892L508.935 346.533H471.369L468.152 335.363H439.671L436.454 346.533H398.889L433.95 248.789Z" fill="#020203"></path> <path d="M587.958 280.889H562.823V346.514H525.678V280.889H500.543V248.789H587.958V280.889Z" fill="#020203"></path> <path d="M676.197 276.703H636.547V285.093H670.621V309.936H636.547V318.326H677.038V346.514H599.402V248.789H676.197V276.703Z" fill="#020203"></path> <path d="M737.342 293.191C742.789 293.191 745.166 289.554 745.166 285.642C745.166 281.73 742.789 278.11 737.342 278.11H727.982V293.191H737.342ZM690.855 248.789H739.444C761.088 248.789 782.311 257.161 782.311 284.399C782.311 299.059 776.169 308.272 767.083 313.574L790.683 346.514H750.339L732.881 319.99H728.001V346.514H690.855V248.789Z" fill="#020203"></path> </svg> 